<svg width="200" height="90" viewBox="0 0 200 90" fill="none" xmlns="http://www.w3.org/2000/svg">
<g filter="url(#filter0_i_122_21)">
<rect width="200" height="90" rx="30" fill="#131313"/>
<path d="M68.544 43.9713C64.128 42.4779 61.92 40.1419 61.92 36.9633C61.92 35.1713 62.496 33.7739 63.648 32.7713C64.8 31.7686 66.4107 31.2673 68.48 31.2673C70.4 31.2673 72.1813 31.5553 73.824 32.1313C74.1653 32.2593 74.4427 32.4833 74.656 32.8033C74.8693 33.1019 74.976 33.4433 74.976 33.8273C74.976 34.1046 74.8587 34.3179 74.624 34.4673C74.3893 34.5953 74.144 34.6059 73.888 34.4993C72.16 33.7313 70.4213 33.3473 68.672 33.3473C67.392 33.3473 66.3573 33.6459 65.568 34.2433C64.8 34.8406 64.416 35.7473 64.416 36.9633C64.416 39.0539 65.8133 40.5686 68.608 41.5073C71.2533 42.3819 73.1093 43.3846 74.176 44.5153C75.2427 45.6459 75.776 47.0966 75.776 48.8673C75.776 50.9579 75.1467 52.5473 73.888 53.6353C72.6293 54.7233 70.784 55.2673 68.352 55.2673C66.5173 55.2673 64.864 54.9366 63.392 54.2753C62.6453 53.9339 62.272 53.3366 62.272 52.4833C62.272 52.2059 62.3893 52.0033 62.624 51.8753C62.8587 51.7473 63.0933 51.7473 63.328 51.8753C64.7787 52.7073 66.3893 53.1233 68.16 53.1233C71.5307 53.1233 73.216 51.7046 73.216 48.8673C73.216 47.7153 72.8533 46.7553 72.128 45.9873C71.4027 45.2193 70.208 44.5473 68.544 43.9713ZM82.239 44.3553V48.8993C82.239 50.1153 82.719 51.1606 83.679 52.0353C84.639 52.9099 85.759 53.3473 87.039 53.3473C88.5537 53.3473 89.727 52.7819 90.559 51.6513C91.4123 50.4993 91.839 48.8246 91.839 46.6273C91.839 42.1473 90.239 39.9073 87.039 39.9073C85.7377 39.9073 84.607 40.3553 83.647 41.2513C82.7083 42.1259 82.239 43.1606 82.239 44.3553ZM81.887 61.6353C81.6523 61.8699 81.3643 61.9873 81.023 61.9873C80.6817 61.9873 80.383 61.8699 80.127 61.6353C79.8923 61.4006 79.775 61.1126 79.775 60.7713V39.4593C79.775 39.1393 79.8817 38.8726 80.095 38.6593C80.3297 38.4246 80.607 38.3073 80.927 38.3073C81.247 38.3073 81.5243 38.4246 81.759 38.6593C81.9937 38.8726 82.111 39.1393 82.111 39.4593L82.143 40.6753C82.143 40.6966 82.1537 40.7073 82.175 40.7073L82.239 40.6433C83.647 38.8726 85.4283 37.9873 87.583 37.9873C89.6523 37.9873 91.2843 38.7446 92.479 40.2593C93.695 41.7526 94.303 43.8753 94.303 46.6273C94.303 49.2939 93.6737 51.4059 92.415 52.9633C91.1777 54.4993 89.567 55.2673 87.583 55.2673C85.407 55.2673 83.6577 54.4459 82.335 52.8033C82.3137 52.7819 82.2923 52.7713 82.271 52.7713C82.2497 52.7713 82.239 52.7819 82.239 52.8033V60.7713C82.239 61.1126 82.1217 61.4006 81.887 61.6353ZM106.214 46.1473C104.102 46.1473 102.502 46.4886 101.414 47.1713C100.347 47.8539 99.814 48.8139 99.814 50.0513C99.814 51.0113 100.081 51.7899 100.614 52.3873C101.169 52.9633 101.894 53.2513 102.79 53.2513C104.326 53.2513 105.595 52.7393 106.598 51.7153C107.622 50.6913 108.134 49.3366 108.134 47.6513V46.4353C108.134 46.2433 108.038 46.1473 107.846 46.1473H106.214ZM102.278 55.2673C100.827 55.2673 99.6433 54.8086 98.726 53.8913C97.8087 52.9739 97.35 51.7579 97.35 50.2433C97.35 48.4726 98.054 47.0539 99.462 45.9873C100.87 44.9206 103.121 44.3873 106.214 44.3873H107.846C108.038 44.3873 108.134 44.3019 108.134 44.1313V43.5233C108.134 42.2219 107.835 41.3153 107.238 40.8033C106.641 40.2699 105.585 40.0033 104.07 40.0033C102.598 40.0033 101.009 40.2806 99.302 40.8353C99.046 40.9206 98.8113 40.8886 98.598 40.7393C98.3847 40.5899 98.278 40.3766 98.278 40.0993C98.278 39.3526 98.63 38.8726 99.334 38.6593C100.913 38.2113 102.491 37.9873 104.07 37.9873C106.523 37.9873 108.219 38.4353 109.158 39.3313C110.118 40.2273 110.598 41.8379 110.598 44.1633V53.7953C110.598 54.1153 110.481 54.3926 110.246 54.6273C110.033 54.8406 109.766 54.9473 109.446 54.9473C109.126 54.9473 108.849 54.8406 108.614 54.6273C108.379 54.3926 108.262 54.1153 108.262 53.7953L108.23 52.1313C108.23 52.1099 108.219 52.0993 108.198 52.0993C108.155 52.0993 108.134 52.1206 108.134 52.1633C106.875 54.2326 104.923 55.2673 102.278 55.2673ZM121.964 55.2673C119.446 55.2673 117.505 54.5419 116.14 53.0913C114.796 51.6193 114.124 49.4646 114.124 46.6273C114.124 43.8113 114.774 41.6673 116.076 40.1953C117.398 38.7233 119.254 37.9873 121.644 37.9873C122.753 37.9873 123.926 38.1046 125.164 38.3393C125.462 38.4033 125.708 38.5633 125.9 38.8193C126.113 39.0539 126.22 39.3313 126.22 39.6513C126.22 39.9073 126.102 40.1099 125.868 40.2593C125.654 40.4086 125.42 40.4513 125.164 40.3873C124.076 40.1099 122.956 39.9713 121.804 39.9713C118.39 39.9713 116.684 42.1899 116.684 46.6273C116.684 48.9313 117.132 50.6166 118.028 51.6833C118.924 52.7499 120.289 53.2833 122.124 53.2833C123.318 53.2833 124.406 53.1233 125.388 52.8033C125.622 52.7179 125.846 52.7499 126.06 52.8993C126.273 53.0486 126.38 53.2513 126.38 53.5073C126.38 53.8273 126.284 54.1153 126.092 54.3713C125.9 54.6273 125.644 54.7979 125.324 54.8833C124.321 55.1393 123.201 55.2673 121.964 55.2673ZM137.265 39.8433C134.3 39.8433 132.678 41.6033 132.401 45.1233C132.401 45.2939 132.497 45.3793 132.689 45.3793H141.297C141.468 45.3793 141.553 45.2939 141.553 45.1233C141.425 41.6033 139.996 39.8433 137.265 39.8433ZM137.937 55.2673C135.313 55.2673 133.318 54.5526 131.953 53.1233C130.588 51.6726 129.905 49.5073 129.905 46.6273C129.905 43.6619 130.556 41.4859 131.857 40.0993C133.18 38.6913 134.982 37.9873 137.265 37.9873C141.468 37.9873 143.697 40.4726 143.953 45.4433C143.974 45.9553 143.793 46.3926 143.409 46.7553C143.046 47.0966 142.609 47.2673 142.097 47.2673H132.625C132.454 47.2673 132.369 47.3633 132.369 47.5553C132.561 51.4593 134.492 53.4113 138.161 53.4113C139.377 53.4113 140.625 53.1873 141.905 52.7393C142.14 52.6539 142.364 52.6859 142.577 52.8353C142.79 52.9633 142.897 53.1553 142.897 53.4113C142.897 54.1366 142.566 54.5846 141.905 54.7553C140.54 55.0966 139.217 55.2673 137.937 55.2673Z" fill="white"/>
</g>
<defs>
<filter id="filter0_i_122_21" x="-7" y="-9" width="207" height="99" filterUnits="userSpaceOnUse" color-interpolation-filters="sRGB">
<feFlood flood-opacity="0" result="BackgroundImageFix"/>
<feBlend mode="normal" in="SourceGraphic" in2="BackgroundImageFix" result="shape"/>
<feColorMatrix in="SourceAlpha" type="matrix" values="0 0 0 0 0 0 0 0 0 0 0 0 0 0 0 0 0 0 127 0" result="hardAlpha"/>
<feOffset dx="-7" dy="-9"/>
<feGaussianBlur stdDeviation="15"/>
<feComposite in2="hardAlpha" operator="arithmetic" k2="-1" k3="1"/>
<feColorMatrix type="matrix" values="0 0 0 0 0.245833 0 0 0 0 0.245833 0 0 0 0 0.245833 0 0 0 0.88 0"/>
<feBlend mode="normal" in2="shape" result="effect1_innerShadow_122_21"/>
</filter>
</defs>
</svg>
